<svg xmlns="http://www.w3.org/2000/svg" viewBox="0 0 95.03 45.35"><defs><style>.cls-1{fill:#fff;}.cls-2,.cls-3{fill:#231f20;}.cls-3{font-size:8.85px;font-family:Arial-BoldMT, Arial;font-weight:700;}.cls-4{letter-spacing:-0.02em;}</style></defs><g id="Layer_1" data-name="Layer 1"><g id="Layer_2" data-name="Layer 2"><g id="Layer_1-2" data-name="Layer 1-2"><polygon class="cls-1" points="94.97 0 94.42 0 0.55 0 0 0 0 0.49 0 44.87 0 45.35 0.55 45.35 95.03 45.35 95.03 0 94.97 0"/><path class="cls-2" d="M94.42.49V44.87H.55V.49H94.42" transform="translate(0 0)"/><rect class="cls-1" x="1.92" y="2.06" width="26.19" height="7.36"/><rect class="cls-1" x="1.91" y="11.03" width="26.21" height="27.05"/><polygon class="cls-1" points="1.91 43.27 1.91 39.68 7.17 39.68 7.17 40.52 4.02 40.52 4.02 41.03 6.69 41.03 6.69 41.87 4.02 41.87 4.02 42.43 7.29 42.43 7.29 43.27 1.91 43.27"/><path class="cls-1" d="M11.76,40.72a.37.37,0,0,0-.3-.24,1.7,1.7,0,0,0-.55-.07c-.46,0-.67.08-.67.21,0,.53,3.71.2,3.71,1.51,0,.83-1.25,1.24-3,1.24s-2.81-.56-2.86-1.21h2a.56.56,0,0,0,.35.29,2,2,0,0,0,.6.09c.53,0,.88-.1.88-.27,0-.54-3.71-.17-3.71-1.54,0-.76,1.18-1.14,2.79-1.14,1.79,0,2.61.5,2.76,1.13Z" transform="translate(0 0)"/><path class="cls-1" d="M17.11,41.23H18c.65,0,1-.09,1-.34s-.36-.37-.85-.37h-1Zm0,.79v1.25H15V39.68h3.05c2.15,0,2.85.33,2.85,1,0,.42-.33.76-1.08.88.68.14,1.09.23,1.09,1,0,.47,0,.63.23.63v.11H19a1.52,1.52,0,0,1-.1-.63c0-.47-.14-.62-1.13-.62Z" transform="translate(0 0)"/><path class="cls-1" d="M24.32,40.52v.6h.88c.42,0,.72-.11.72-.32s-.41-.28-.86-.28Zm0,1.25v.66h.92c.52,0,.92-.06.92-.33s-.5-.33-1.17-.33Zm-2.12,1.5V39.68h3.09c1.45,0,2.6.19,2.6.9,0,.37-.43.64-.84.78.7.1,1.07.44,1.07.83,0,.8-1.09,1.08-2.77,1.08Z" transform="translate(0 0)"/><rect class="cls-1" x="29.7" y="2.05" width="63.16" height="41.22"/></g></g></g><g id="Layer_2-2" data-name="Layer 2"><g id="Layer_2-3" data-name="Layer 2"><g id="Layer_1-2-2" data-name="Layer 1-2"><polygon class="cls-2" points="4.09 17.59 24.36 12.53 25.92 17.94 19.41 19.56 23.77 34.74 16.53 36.55 12.15 21.37 5.64 22.99 4.09 17.59"/><polygon class="cls-2" points="21.95 3.66 23.67 3.66 25.67 5.93 25.6 4.98 25.6 3.66 27.36 3.66 27.36 7.82 25.64 7.82 23.64 5.55 23.67 6.54 23.71 7.82 21.95 7.82 21.95 3.66"/><polygon class="cls-2" points="15.75 3.66 20.31 3.66 20.31 4.62 17.59 4.62 17.59 5.23 19.89 5.23 19.89 6.19 17.59 6.19 17.59 6.85 20.43 6.85 20.43 7.82 15.75 7.82 15.75 3.66"/><polygon class="cls-2" points="9.34 3.66 13.9 3.66 13.9 4.62 11.16 4.62 11.16 5.23 13.48 5.23 13.48 6.19 11.16 6.19 11.16 6.85 14.01 6.85 14.01 7.82 9.34 7.82 9.34 3.66"/><polygon class="cls-2" points="2.64 3.66 7.77 3.66 7.77 4.75 6.13 4.75 6.13 7.82 4.28 7.82 4.28 4.75 2.64 4.75 2.64 3.66"/></g></g><text class="cls-3" transform="translate(31.25 25.46) scale(0.76 1)">Animated <tspan class="cls-4" x="42.78" y="0">V</tspan><tspan x="48.52" y="0">iolence</tspan></text></g></svg>